<?xml version="1.0" encoding="utf-8"?>
<svg version="1.0" width="370.000000pt" height="310.000000pt" viewBox="0 0 370.000000 310.000000" preserveAspectRatio="xMidYMid meet" xmlns="http://www.w3.org/2000/svg">
  <g transform="translate(0.000000,310.000000) scale(0.100000,-0.100000)" fill="#000000" stroke="none">
    <path d="M 1697 3065 C 1364 3020 1050 2883 797 2672 C 754 2637 699 2582 674 2551 C 634 2502 618 2491 552 2466 C 443 2425 352 2401 304 2401 C 250 2400 222 2371 238 2335 C 252 2304 318 2255 390 2222 C 420 2208 446 2196 447 2195 C 448 2195 419 2163 382 2124 C 305 2045 266 1977 217 1835 C 176 1717 163 1637 151 1443 L 143 1302 L 86 1185 C 14 1038 8 1010 45 976 C 81 943 146 933 203 953 L 247 968 L 259 934 C 275 891 417 740 485 695 L 538 660 L 519 623 C 463 509 477 363 552 268 C 674 113 1062 16 1603 3 C 1925 -5 2120 14 2395 80 C 2527 111 2580 131 2625 164 C 2687 209 2725 227 2745 219 C 2778 206 2852 209 2915 225 C 2999 246 3146 322 3207 375 C 3316 470 3373 599 3352 702 C 3345 739 3346 752 3356 758 C 3369 765 3460 958 3460 979 C 3460 996 3467 993 3530 955 C 3603 910 3664 906 3682 945 C 3691 965 3690 982 3677 1027 C 3658 1094 3640 1258 3640 1363 C 3640 1471 3604 1762 3576 1875 C 3542 2014 3467 2237 3439 2285 C 3356 2425 3219 2581 3101 2670 C 3009 2740 2867 2810 2807 2814 C 2773 2817 2750 2825 2732 2842 C 2624 2940 2440 3021 2250 3056 C 2130 3078 1833 3083 1697 3065 Z M 2142 2985 C 2205 2977 2292 2961 2335 2950 C 2432 2926 2581 2855 2669 2793 C 2714 2760 2748 2744 2783 2739 C 2910 2719 3160 2543 3264 2402 C 3314 2334 3415 2128 3444 2035 C 3508 1831 3532 1690 3550 1415 C 3556 1322 3567 1196 3574 1135 C 3582 1075 3587 1024 3586 1022 C 3584 1021 3557 1037 3524 1058 C 3492 1079 3458 1099 3448 1102 C 3423 1112 3403 1090 3397 1046 C 3391 1009 3317 840 3306 840 C 3303 840 3281 861 3256 888 L 3210 935 L 3216 1025 C 3223 1130 3207 1325 3180 1455 C 3170 1505 3158 1564 3155 1587 C 3146 1642 3117 1681 3098 1662 C 3089 1652 3085 1611 3084 1507 C 3083 1302 3053 1195 2922 930 C 2875 836 2827 784 2796 796 C 2777 803 2754 858 2725 964 C 2701 1052 2700 1066 2709 1136 C 2725 1249 2723 1325 2704 1341 C 2690 1352 2686 1351 2674 1335 C 2666 1325 2660 1298 2660 1275 C 2660 1210 2640 1066 2629 1055 C 2604 1030 2304 1168 2180 1261 C 2041 1366 1933 1497 1915 1583 C 1911 1601 1903 1610 1890 1610 C 1865 1610 1861 1586 1852 1369 C 1844 1172 1840 1160 1781 1160 C 1730 1160 1594 1210 1503 1261 C 1400 1320 1270 1449 1208 1557 C 1181 1601 1160 1643 1160 1649 C 1160 1655 1149 1660 1137 1660 C 1121 1660 1109 1651 1100 1633 C 1086 1602 1041 1273 1040 1198 C 1040 1137 1031 1137 920 1191 C 803 1247 700 1351 639 1475 C 600 1553 595 1573 591 1642 C 589 1702 584 1723 572 1727 C 533 1743 518 1652 543 1554 C 555 1508 555 1500 539 1481 C 505 1439 485 1317 485 1145 C 486 988 534.757 724.166 552.757 724.166 C 557.757 724.166 530 825 530 808 L 532.79 773.105 L 504 805 C 426 899 380 1014 380 1116 C 380 1167 364 1200 338 1200 C 332 1200 287 1162 238 1115 C 158 1039 110 1011 110 1040 C 110 1046 131 1092 156 1143 C 219 1266 229 1309 240 1486 C 255 1722 303 1881 401 2021 C 425 2054 464 2096 489 2115 C 547 2157 568 2212 539 2241 C 528 2252 516 2260 511 2260 C 506 2260 471 2274 433 2291 L 365 2322 L 438 2341 C 573 2375 665 2428 770 2533 C 876 2636 1059 2765 1193 2829 C 1479 2965 1840 3025 2142 2985 Z M 1304 1337 C 1481 1165 1787 1050 1869 1124 C 1896 1149 1908 1204 1912 1318 C 1913 1374 1916 1420 1918 1420 C 1920 1420 1963 1378 2013 1327 C 2064 1277 2141 1211 2185 1182 C 2316 1095 2552 989 2622 986 L 2658 985 L 2680 903 C 2705 810 2733 761 2774 742 C 2798 730 2808 730 2845 745 C 2869 754 2902 776 2917 793 C 2980 864 3019 890 3061 890 C 3140 890 3233 815 3258 731 C 3296 605 3241 495 3086 392 C 2990 327 2863 286 2784 292 C 2750 295 2708 291 2682 284 C 2627 267 2531 223 2510 204 C 2471 171 2129 107 1895 90 C 1455 57 879 141 685 264 C 605 316 576 365 572 460 C 570 501 573 555 579 578 L 591 619 L 642 617 C 708 614 715 633 670 688 C 653 709 630 751 618 781 C 588 860 582 1042 605 1213 C 615 1286 624 1346 626 1348 C 627 1350 668 1312 717 1263 C 786 1194 822 1166 880 1138 C 968 1096 1065 1071 1081 1087 C 1087 1093 1095 1135 1100 1181 C 1105 1227 1116 1328 1124 1405 C 1133 1482 1140 1547 1140 1548 C 1140 1550 1163 1517 1192 1474 C 1221 1431 1271 1370 1304 1337 Z"/>
    <path d="M869 954 c-66 -20 -82 -43 -87 -118 -5 -77 10 -106 74 -137 55 -26 132 -23 165 7 76 67 60 214 -26 250 -41 17 -65 16 -126 -2z"/>
    <path d="M2136 945 c-66 -23 -96 -65 -96 -137 0 -107 124 -182 220 -133 62 32 96 144 62 207 -28 52 -124 84 -186 63z"/>
    <path d="M1667 490 c-66 -74 -135 -85 -205 -33 -61 46 -99 3 -45 -52 53 -53 145 -71 216 -41 68 28 123 108 100 144 -16 27 -28 24 -66 -18z"/>
  </g>
</svg>